<svg width="17" height="17" fill="none" xmlns="http://www.w3.org/2000/svg"><circle cx="8.5" cy="8.5" r="8.5" fill="#D7D9DF"/><path d="m7.856 10.174 1.411-.414a.782.782 0 0 1-.233-.544c0-1.088 2.163-1.23 2.163-3.122 0-1.204-1.023-2.046-2.694-2.046-1.114 0-2.15.453-2.836 1.256l1.049 1.179c.401-.48.945-.803 1.593-.803.712 0 1.01.336 1.01.738 0 .894-1.89 1.075-1.89 2.616 0 .454.155.842.427 1.14Zm.621 2.785c.57 0 1.05-.48 1.05-1.05 0-.57-.48-1.048-1.05-1.048-.57 0-1.049.479-1.049 1.049s.48 1.049 1.05 1.049Z" fill="#fff"/></svg>