<svg xmlns="http://www.w3.org/2000/svg" viewBox="0 0 283.196 283.196" style="enable-background:new 0 0 283.196 283.196" xml:space="preserve"><path style="fill:#010002" d="M240.861 283.196H42.335c-6.005 0-10.878-4.873-10.878-10.878V10.878C31.457 4.873 36.33 0 42.335 0h198.526c6.005 0 10.878 4.873 10.878 10.878v261.44c0 6.01-4.873 10.878-10.878 10.878z"/><path style="fill:#010002" d="M215.428 233.82H67.763c-5.619 0-10.171-4.553-10.171-10.176V46.384c0-5.619 4.552-10.176 10.171-10.176h147.665c5.619 0 10.171 4.552 10.171 10.176v177.259c.005 5.624-4.553 10.177-10.171 10.177z"/><circle style="fill:#010002" cx="141.598" cy="259.715" r="8.838"/><circle style="fill:#010002" cx="141.598" cy="18.509" r="2.643"/></svg>